# xmcd CD database file
#
# Track frame offsets:
#	150
#	18720
#	34852
#	50209
#	71985
#	91630
#	116052
#	130904
#	154054
#	168323
#	179887
#	195910
#	207380
#	226072
#
# Disc length: 3194 seconds
#
# Revision: 0
# Processed by: cddbd v1.5.2PL0 Copyright (c) Steve Scherf et al.
# Submitted via: jetAudio 7
#
DISCID=c70c780e
DTITLE=史힐영  - 赴宴
DYEAR=2003
DGENRE=Vocal
TTITLE0=赴宴 (片尾曲縯奏版)
TTITLE1=種一個夢
TTITLE2=幸福之歌
TTITLE3=孤獨與狂野
TTITLE4=流光
TTITLE5=當年
TTITLE6=守護.愛
TTITLE7=回流
TTITLE8=喜悦.飛翔
TTITLE9=謎
TTITLE10=隨想
TTITLE11=孢子國
TTITLE12=赴宴 (片尾曲)
TTITLE13=泰雅古訓 (主題曲)
EXTD=YEAR: 2003
EXTT0=
EXTT1=
EXTT2=
EXTT3=
EXTT4=
EXTT5=
EXTT6=
EXTT7=
EXTT8=
EXTT9=
EXTT10=
EXTT11=
EXTT12=
EXTT13=
PLAYORDER=
